# xmcd CD database file
#
# Track frame offsets:
#	150
#	23887
#	46717
#
# Disc length: 938 seconds
#
# Revision: 0
# Processed by: cddbd v1.5.1PL2 Copyright (c) Steve Scherf et al.
# Submitted via: CD2WAV32(JP) R3.22
#
DISCID=1803a803
DTITLE=平井堅 - バイマイメロディー
DYEAR=2006
DGENRE=JPop
TTITLE0=バイマイメロディー
TTITLE1=hug
TTITLE2=バイマイメロディー ～less vocal～
EXTD=
EXTT0=
EXTT1=
EXTT2=
PLAYORDER=
